<?xml version="1.0" standalone="no"?><!DOCTYPE svg PUBLIC "-//W3C//DTD SVG 1.1//EN" "http://www.w3.org/Graphics/SVG/1.1/DTD/svg11.dtd"><svg t="1507538784866" class="icon" style="" viewBox="0 0 1024 1024" version="1.1" xmlns="http://www.w3.org/2000/svg" p-id="2379" xmlns:xlink="http://www.w3.org/1999/xlink" width="200" height="200"><defs><style type="text/css"></style></defs><path d="M956.034 403.568c-9.041-22.586-27.108-36.144-49.696-40.657l-234.945-36.144-99.402-207.836c-9.041-22.586-31.631-36.144-58.732-36.144s-49.696 13.557-58.732 36.144l-99.402 207.836-234.945 36.144c-22.586 4.517-45.187 18.071-49.696 40.657-9.041 22.586 0 45.187 13.557 63.253l171.689 167.171-40.657 234.945c-4.517 22.586 4.517 45.187 27.108 63.253 9.041 9.041 22.586 13.557 36.144 13.557 9.041 0 22.586-4.517 31.631-9.041l203.313-103.919 203.313 103.919c9.041 4.517 22.586 9.041 31.631 9.041 13.557 0 27.108-4.517 36.144-13.557 18.071-13.557 31.631-36.144 27.108-63.253l-40.657-234.945 171.689-167.171c18.071-18.071 22.586-40.657 13.557-63.253v0zM956.034 403.568z" p-id="2380" fill="#f4ea2a"></path></svg>